<?xml version="1.0" standalone="no"?><!DOCTYPE svg PUBLIC "-//W3C//DTD SVG 1.1//EN" "http://www.w3.org/Graphics/SVG/1.1/DTD/svg11.dtd"><svg class="icon" width="16px" height="16.00px" viewBox="0 0 1024 1024" version="1.1" xmlns="http://www.w3.org/2000/svg"><path fill="#fea900" d="M575.881424 72.019267c0-15.489786-10.914584-21.727861-24.255427-13.861706l-89.719394 52.898791c-13.340843 7.872295-24.255427 26.978445-24.255427 42.462091l0 114.186645 138.230248 0L575.881424 72.019267zM579.719846 298.467719 441.488575 298.467719 404.373259 298.467719 404.373259 565.66934 609.157295 431.883311 609.157295 298.467719ZM363.414405 629.121488l0 312.768423c0 14.134929 11.463076 25.594935 25.598005 25.594935l235.508805 0c14.134929 0 25.596981-11.458983 25.596981-25.594935L650.118196 441.819614 363.414405 629.121488zM456.849424 926.528038l-40.958854 0L415.89057 642.383536l40.958854-23.036669L456.849424 926.528038z" /></svg>