<?xml version="1.0" standalone="no"?><!DOCTYPE svg PUBLIC "-//W3C//DTD SVG 1.1//EN" "http://www.w3.org/Graphics/SVG/1.1/DTD/svg11.dtd"><svg class="icon" width="16px" height="16.00px" viewBox="0 0 1024 1024" version="1.1" xmlns="http://www.w3.org/2000/svg"><path fill="#fea900" d="M421.831374 825.660746 114.947985 825.660746c-41.22696 0-74.647117-33.42118-74.647117-74.647117L40.300868 232.627175c0-41.22696 33.42118-74.647117 74.647117-74.647117L421.831374 157.980058c41.22696 0 74.647117 33.42118 74.647117 74.647117l0 518.385431c0 20.61348 0 79.485309 0 110.588701C472.979288 833.954643 442.444854 825.660746 421.831374 825.660746zM604.303242 825.660746l306.884412 0c41.22696 0 74.647117-33.42118 74.647117-74.647117L985.834772 232.627175c0-41.22696-33.42118-74.647117-74.647117-74.647117L604.303242 157.980058c-41.22696 0-74.647117 33.42118-74.647117 74.647117l0 518.385431c0 20.61348 0 79.485309 0 110.588701C553.156352 833.954643 583.689762 825.660746 604.303242 825.660746z" /></svg>