<?xml version="1.0" standalone="no"?><!DOCTYPE svg PUBLIC "-//W3C//DTD SVG 1.1//EN" "http://www.w3.org/Graphics/SVG/1.1/DTD/svg11.dtd"><svg class="icon" width="16px" height="16.00px" viewBox="0 0 1024 1024" version="1.1" xmlns="http://www.w3.org/2000/svg"><path fill="#fea900" d="M710.4 454.4v-9.6c0-57.6-51.2-105.6-112-105.6h-166.4c-60.8 0-112 48-112 105.6v9.6c0 6.4 86.4 12.8 195.2 12.8 105.6-3.2 195.2-6.4 195.2-12.8z m48 102.4h-3.2c-41.6 3.2-73.6 25.6-92.8 57.6-3.2 3.2 0 6.4 0 9.6 0 6.4 3.2 9.6 9.6 12.8h73.6c12.8 0 25.6-9.6 25.6-22.4v-44.8c0-6.4-6.4-12.8-12.8-12.8z m-486.4 0h-3.2c-6.4 0-12.8 6.4-12.8 12.8v44.8c0 12.8 9.6 22.4 25.6 22.4h73.6c6.4 0 9.6-6.4 9.6-12.8v-9.6c-19.2-32-54.4-54.4-92.8-57.6z"  /><path fill="#fea900" d="M512 0C230.4 0 0 230.4 0 512s230.4 512 512 512 512-230.4 512-512S793.6 0 512 0z m307.2 694.4c0 19.2-16 35.2-38.4 35.2h-48c-16 0-32-9.6-35.2-22.4-3.2-9.6-3.2-16-9.6-19.2-41.6 3.2-105.6 6.4-172.8 6.4s-131.2-3.2-172.8-6.4c-6.4 3.2-9.6 9.6-12.8 19.2-6.4 12.8-19.2 22.4-35.2 22.4H243.2c-19.2 0-38.4-16-38.4-35.2V544c0-38.4 19.2-70.4 48-92.8 0-89.6 76.8-160 172.8-160h172.8c96 0 172.8 70.4 172.8 160 28.8 19.2 48 54.4 48 92.8v150.4z"  /></svg>