<?xml version="1.0" standalone="no"?><!DOCTYPE svg PUBLIC "-//W3C//DTD SVG 1.1//EN" "http://www.w3.org/Graphics/SVG/1.1/DTD/svg11.dtd"><svg class="icon" width="16px" height="16.00px" viewBox="0 0 1024 1024" version="1.1" xmlns="http://www.w3.org/2000/svg"><path fill="#fea900" d="M762.39177 445.703061c1.049912 9.380648 1.721201 18.884093 1.721201 28.551266 0 142.682653-115.671463 258.357186-258.360256 258.357186-129.810484 0-237.225913-95.747691-255.564583-220.455971l-58.538231-304.340473-65.361637 0 0-56.511062 112.595404 0 0.600681-0.109494 55.930847 290.757107L538.048259 441.951621 538.048259 146.668431c14.474666-2.25639 29.300326-3.440355 44.407396-3.440355 157.772326 0 285.73165 127.483486 286.578947 285.060361L762.39177 445.703061zM311.982524 692.246177c44.590568 0 80.737836 36.145222 80.737836 80.731696 0 44.592614-36.147268 80.737836-80.737836 80.737836-44.586474 0-80.734766-36.145222-80.734766-80.737836C231.248781 728.391399 267.396049 692.246177 311.982524 692.246177zM699.524954 692.246177c44.590568 0 80.737836 36.145222 80.737836 80.731696 0 44.592614-36.147268 80.737836-80.737836 80.737836-44.590568 0-80.737836-36.145222-80.737836-80.737836C618.786095 728.391399 654.933363 692.246177 699.524954 692.246177z" /></svg>