<?xml version="1.0" standalone="no"?><!DOCTYPE svg PUBLIC "-//W3C//DTD SVG 1.1//EN" "http://www.w3.org/Graphics/SVG/1.1/DTD/svg11.dtd"><svg class="icon" width="16px" height="16.00px" viewBox="0 0 1024 1024" version="1.1" xmlns="http://www.w3.org/2000/svg"><path fill="#fea900" d="M822.650179 686.543292 203.557092 686.543292c-48.846498 0-88.442308-39.59581-88.442308-88.437192L115.114784 155.895583c0-48.846498 39.59581-88.446401 88.442308-88.446401L822.650179 67.449181c48.846498 0 88.442308 39.599903 88.442308 88.446401l0 442.209494C911.092487 646.947482 871.496677 686.543292 822.650179 686.543292zM822.650179 155.895583 203.557092 155.895583l0 442.209494L822.650179 598.105077 822.650179 155.895583zM291.998377 774.9856l442.209494 0c24.423249 0 44.221154 19.801998 44.221154 44.225247l0 44.217061-44.221154 0L291.998377 863.427908 247.777223 863.427908l0-44.217061C247.777223 794.787598 267.575128 774.9856 291.998377 774.9856z" /></svg>