<?xml version="1.0" standalone="no"?><!DOCTYPE svg PUBLIC "-//W3C//DTD SVG 1.1//EN" "http://www.w3.org/Graphics/SVG/1.1/DTD/svg11.dtd"><svg class="icon" width="16px" height="16.00px" viewBox="0 0 1024 1024" version="1.1" xmlns="http://www.w3.org/2000/svg"><path fill="#fea900" d="M721.698976 113.536846c16.347317 11.05887 30.17116 23.931039 41.547255 38.59297 11.351536 14.667048 20.583804 28.845978 27.672246 42.536792 7.830339 16.314571 13.872962 32.591279 18.057261 48.889477 2.88163-0.655939 6.757914 0 11.783371 1.952468 4.231371 1.308809 9.895371 3.602038 16.983813 6.838755 7.121188 3.26844 16.699334 8.153704 28.744671 14.667048 11.376095 7.161097 20.6319 13.707187 27.690666 19.545148 7.088442 5.884011 12.398378 11.43033 15.965623 16.628726 4.263094 5.860475 7.475252 11.413957 9.587356 16.645099L104.21248 319.833329c2.14178-4.586458 5.000897-9.468652 8.515954-14.683421 3.575432-4.578272 8.167007-9.619078 13.878079-15.157211 5.665023-5.538133 13.108552-11.55722 22.340821-18.086937 9.234315-5.868661 17.897625-10.595312 26.059516-14.178931 8.169053-3.569292 15.102976-6.681166 20.764929-9.29469 7.090489-2.584871 13.487176-4.553713 19.174712-5.854335 4.238534-14.997576 10.302647-29.989011 18.10945-44.98761 6.374174-13.029758 14.739702-26.855648 25.02086-41.530882 10.270924-14.675234 23.230074-27.877931 38.867216-39.609113 18.442024-13.674441 39.906895-23.931039 64.399729-30.792307 24.506137-6.845918 48.068785-11.895935 70.748321-15.180747 26.319435-3.236718 52.936653-4.867868 79.901795-4.867868 15.604396 0 32.282241 0.50449 50.036603 1.458211 17.772782 0.992607 35.827997 3.111874 54.292534 6.372128 18.464537 3.246951 36.543288 8.137331 54.299697 14.669094C688.345334 94.606705 705.432501 103.099123 721.698976 113.536846L721.698976 113.536846 721.698976 113.536846zM511.991814 110.582561c-22.703071 1.300622-43.99705 3.244904-63.887053 5.868661-17.014512 2.584871-34.226522 6.184863-51.598168 10.761088-17.415648 4.553713-31.060413 10.761088-41.011043 18.551518-11.374048 9.147334-20.402679 18.583241-27.160593 28.351722-6.727215 9.790994-12.242835 18.591427-16.495696 26.421766-4.979408 9.766434-8.877181 18.905582-11.706623 27.374464 20.575618-1.962701 42.585911-3.916193 65.999157-5.885034 19.843954-1.292436 42.387389-2.734274 67.611887-4.387937 25.216311-1.622964 51.28299-2.442632 78.248132-2.442632 28.382421 0 55.520501 0.818645 81.452103 2.442632 25.885554 1.653663 48.432059 3.095501 67.557652 4.387937 22.75219 1.967818 43.712571 3.922333 62.84021 5.885034-2.851954-11.075243-7.082302-21.852704-12.777001-32.258705-4.946662-9.115612-11.139711-18.418488-18.615986-27.871791-7.443529-9.467629-17.23657-17.754363-29.303396-24.948205-21.977547-13.029758-46.461171-21.497617-73.449849-25.39539C562.763151 113.536846 536.828478 111.23543 511.991814 110.582561L511.991814 110.582561 511.991814 110.582561zM901.629975 389.233955c24.15105 0 36.237319 11.729136 36.237319 35.180244 0 9.79304-3.057639 17.930371-9.05319 24.443715-6.0416 6.531763-13.699 9.784854-22.898523 9.784854l-30.856775 0 0 298.203706c0 14.9679-2.52859 29.650297-7.499811 43.972491-4.946662 14.344706-16.683984 29.973662-35.117822 46.949288-9.94756 8.484232-19.488867 14.983249-28.767184 19.567661-9.178033 4.553713-17.724687 8.137331-25.532513 10.728342-8.513908 2.623757-17.030885 4.593622-25.530466 5.868661l0 41.074487c0 9.121751-3.922333 16.298198-11.6749 21.51399-7.861038 5.191232-16.70752 8.137331-26.65815 8.783037-9.940396 0-18.795065-2.929726-26.625404-8.783037-7.828292-5.862521-11.729136-13.046131-11.729136-21.51399l0-38.128389L353.378329 886.879016l0 38.128389c0 9.121751-4.285606 15.975856-12.793374 20.527522-8.524141 4.570085-17.046235 6.838755-25.563212 6.838755-9.942443 0-18.637476-2.607384-26.066679-7.830339-7.443529-5.214768-11.193947-12.375865-11.193947-21.48943 0-3.261277-0.179079-6.987135-0.525979-11.249205-0.363274-4.238534-0.51984-8.648984-0.51984-13.187347l0-15.677051c-5.686513 0-11.376095-0.951675-17.030885-2.914376-5.002944-1.306762-10.659781-3.25309-17.041118-5.852288-6.39464-2.615571-12.799514-5.885034-19.172665-9.784854-22.703071-14.344706-39.563064-30.792307-50.551326-49.383734-11.021008-18.583241-16.526395-41.208541-16.526395-67.952648l0-18.566868c0-10.435677-0.157589-22.638603-0.536212-36.668131-0.330528-14.005992-0.534166-29.477358-0.534166-46.423309l0-51.825342L155.322531 458.650955l-28.714995 0c-11.374048 0-20.968567-2.954285-28.767184-8.806573-7.806803-5.876847-11.706623-14.346753-11.706623-25.421996 0-10.422374 3.03308-18.897396 9.051143-25.419949 6.02011-6.508227 15.045671-9.768481 27.13808-9.768481l392.852366 0L901.629975 389.233955 901.629975 389.233955 901.629975 389.233955zM560.927339 721.658044l-76.632331 0 0 66.485227 76.632331 0L560.927339 721.658044 560.927339 721.658044 560.927339 721.658044zM560.927339 721.658044" /></svg>