<?xml version="1.0" standalone="no"?><!DOCTYPE svg PUBLIC "-//W3C//DTD SVG 1.1//EN" "http://www.w3.org/Graphics/SVG/1.1/DTD/svg11.dtd"><svg class="icon" width="16px" height="16.00px" viewBox="0 0 1024 1024" version="1.1" xmlns="http://www.w3.org/2000/svg"><path fill="#fea900" d="M734.793202 161.363108c-0.855484 0-1.529843 0.429789-2.326998 0.48914l0-0.367367c-24.739451 0-32.333406 7.286963-63.630203 62.343907-31.355125 55.116295-116.786867 257.272481-91.492784 306.816874 25.291013 49.545416 118.561279 30.314423 118.561279 82.860173l0 95.04775 0 115.253954c0 21.434172 17.393135 38.827307 38.886659 38.827307 21.37482 0 38.767955-17.393135 38.767955-38.827307L773.559111 200.190415C773.561158 178.756243 756.169045 161.363108 734.793202 161.363108zM421.852864 161.363108l0 90.576925c0 6.671956-5.389754 12.062733-12.003382 12.062733-6.67605 0-12.065803-5.389754-12.065803-12.062733l0-90.576925-23.823592 0 0 90.576925c0 6.671956-5.386684 12.062733-12.062733 12.062733s-12.065803-5.389754-12.065803-12.062733l0-90.576925-23.027459 0 0 90.576925c0 6.671956-5.389754 12.062733-12.062733 12.062733-6.615675 0-12.065803-5.389754-12.065803-12.062733l0-90.576925-30.255071 0L250.437819 406.265864c0 47.648207 30.373775 87.942935 72.632227 103.43886l0 314.103838c0 21.434172 17.393135 38.827307 38.827307 38.827307s38.824237-17.393135 38.824237-38.827307l0-314.656423c41.339524-16.044418 70.735018-55.913451 70.735018-102.887298l-19.290345-244.902756L421.852864 161.362085z" /></svg>