<?xml version="1.0" standalone="no"?><!DOCTYPE svg PUBLIC "-//W3C//DTD SVG 1.1//EN" "http://www.w3.org/Graphics/SVG/1.1/DTD/svg11.dtd"><svg class="icon" width="16px" height="16.00px" viewBox="0 0 1024 1024" version="1.1" xmlns="http://www.w3.org/2000/svg"><path d="M956 717.6c-9.3-13.2-22.2-27.1-38.4-41.2-11.1-9.7-14.6-16.8-20.9-29.8-3.5-7.1-7.3-15-12.3-23.3-1.2-3.4-1.7-15.3-2.1-24.8-1.1-27.9-2.9-69.9-22.5-114.8-8.1-18.6-18.8-36.4-31.7-52.8-6.3-8.1-13.4-16.1-21-23.7-14.5-14.5-31.3-28.2-49.9-40.7-0.6-0.4-49.5-42.9-141.7-49.9-111.6-8.5-174.5-0.8-183.9 1.6-7.2 1.8-15 3.9-23.7 6.3-13.1-3.2-27.7-7.4-43.3-12.3-19.5-6.2-45.2-12.8-78.7-20.2-10.5-2.2-21.3 2.2-27.1 11.2-5.8 9.1-5.3 20.8 1.3 29.3l38.3 49.8c-15.3 12.5-28.4 26.9-39.2 43.1-12.3 18.3-27.1 41.3-44.4 68.8H182c-10.8 0-20.4 6.8-24.1 17-10.7 30.1-16.1 60.3-16.1 89.9 0 29.7 5.5 59.6 16.2 88.9 3.7 10.1 13.3 16.8 24 16.8h36.8c10 13.4 24.3 29.7 43.4 49.1 21 21.3 41.6 41.5 61.5 60v74.9c0 14.1 11.4 25.5 25.5 25.5h110.6c9.8 0 18.8-5.6 23-14.5l16.5-34.3c16.1 0.9 32.5 0.3 48.9-1.7 14.6-1.8 32.6-3.7 53.9-5.9v32.9c0 14.1 11.4 25.5 25.5 25.5h115.3c6.2 0 12.1-2.2 16.8-6.3 25.9-22.7 49.5-49.5 69.9-79.8 14.8-22 23.9-48.8 31.2-70.3 1.9-5.5 4.1-12.1 6.1-17.6 15.4 4.9 36.5 9.2 64.6 13.2 10.2 1.6 20-3.3 25.3-11.9 5.4-8.7 5-19.7-0.8-28z" fill="#FFD2C2" /><path d="M954.4 662.8c-10.1-14.4-24.3-29.6-42.1-45.1-12.2-10.6-16-18.4-22.9-32.6-3.8-7.8-8-16.4-13.5-25.5-1.3-3.7-1.9-16.8-2.3-27.2-1.3-30.5-3.2-76.5-24.6-125.7-8.9-20.4-20.6-39.8-34.7-57.8-6.9-8.9-14.7-17.6-23-25.9-15.8-15.9-34.2-30.9-54.7-44.5-0.6-0.4-1.4-0.5-2.1-0.8-0.9-62.1-33.7-119.3-86.3-149.8-13.3-7.7-30.4-3.2-38.2 10.2-7.7 13.4-3.2 30.5 10.2 38.2 36.1 20.9 58.6 60.8 58.6 104 0 11.3-10.5 45.6-25.2 69.3-31.1-13.7-66.9-23.4-107.4-28.9-32.4-4.4-61.7-6.9-88.1-7.7-3.6-10.7-5.9-21.5-5.9-32.8 0-31 11.3-60.2 31.8-82.5 10.5-11.3 9.8-29-1.6-39.5-11.3-10.4-29-9.7-39.5 1.6-16 17.3-27.8 37.6-35.7 59.5-13.5 2.9-30.9 7.2-52.8 13.2-14.4-3.5-30.3-8.1-47.4-13.4-21.3-6.7-49.5-14-86.1-22.1-11.5-2.5-23.3 2.4-29.6 12.3-6.3 9.9-5.7 22.7 1.4 32l41.9 54.5c-16.7 13.7-31.1 29.5-42.9 47.1-13.5 20.1-29.7 45.2-48.6 75.3h-35.9c-11.8 0-22.4 7.5-26.3 18.6-11.7 32.9-17.6 66-17.6 98.4 0 32.5 6 65.2 17.7 97.3 4 11 14.5 18.3 26.2 18.3h40.3c10.9 14.7 26.6 32.5 47.5 53.7 23 23.3 45.6 45.4 67.3 65.7v81.9c0 15.4 12.5 27.9 27.9 27.9h121.1c10.8 0 20.6-6.2 25.2-15.9l18-37.6c17.6 1 35.5 0.3 53.5-1.8 16-1.9 35.7-4.1 59-6.5v36c0 15.4 12.5 27.9 27.9 27.9h126.2c6.8 0 13.3-2.5 18.4-6.9 28.4-24.8 54.1-54.2 76.4-87.3 16.2-24.1 26.1-53.4 34.1-76.9 2-6 4.5-13.2 6.7-19.2 16.9 5.4 40 10.1 70.7 14.4 11.1 1.7 21.9-3.6 27.7-13.1 6.1-9.2 5.7-21.2-0.7-30.3z m-119.8-29.3c-19.8 8-27.1 29.8-37.3 59.9-7.2 21.5-15.4 45.7-27.5 63.6-17.6 26.1-37.5 49.4-59.2 69.5H623v-38.9c0-7.9-3.3-15.4-9.2-20.7-5.8-5.3-13.7-7.8-21.5-7.1-37.7 3.7-68 6.9-91 9.7-20.4 2.5-40.6 2.5-60.1 0-11.9-1.4-23.5 4.8-28.7 15.7l-18.8 39.2h-75.5v-66.2c0-7.8-3.3-15.3-9-20.6-23.8-21.9-48.8-46.2-74.4-72.1-30.3-30.8-43.2-48-48.7-57-5.1-8.3-14.1-13.4-23.9-13.4h-34.7c-5.6-19.9-8.4-39.9-8.4-59.7 0-20 2.9-40.5 8.5-61.1h30.9c9.6 0 18.6-5 23.7-13.2 22-35.4 40.6-64.3 55.7-86.9 13-19.3 30.2-35.7 51.1-48.6 6.7-4.2 11.4-11 12.8-18.8 1.4-7.8-0.5-15.8-5.3-22.1l-10.4-13.5c1.4 0.4 2.7 0.8 4 1.3 21.2 6.7 40.8 12.1 58.3 16.2 4.5 1 9.3 1 13.8-0.3 12.9-3.6 24.1-6.5 34.1-9 0 0.3-0.1 0.6-0.1 0.9 0 11.6 1.4 23 3.9 34.3-15.3 1.4-29.5 3.6-42.3 6.7-15 3.7-24.2 18.8-20.5 33.8 3.7 15 18.7 24.2 33.8 20.5 38.6-9.5 94.9-9.3 167.6 0.5 69.7 9.4 122 32.2 155.4 67.6 5.5 5.8 12.9 8.8 20.3 8.8 6.9 0 13.8-2.5 19.2-7.6 11.2-10.6 11.7-28.3 1.1-39.5-9.8-10.3-20.8-19.7-32.7-28.3 7.5-12.4 14.1-26.4 19.4-40.3 10.9 8.3 21.2 16.8 30.2 25.8 6.9 6.9 13 13.9 18.6 21 11.2 14.2 20.4 29.6 27.4 45.6 17.2 39.5 18.8 77.7 20 105.6 0.9 22.6 1.6 38.9 9.5 52.2 5.1 8.7 8.7 16 11.9 22.6 3.5 7.2 6.9 14.3 11.4 21.4-5.2-0.4-10.6 0.4-15.8 2.5z" fill="#F47E4B" /><path d="M527.6 166.9c2.6 0 5.2-0.4 7.8-1.1 9.8-2.8 20-4.3 30.3-4.3 15.4 0 27.9-12.5 27.9-27.9s-12.5-27.9-27.9-27.9c-15.6 0-31 2.2-45.9 6.5-14.8 4.3-23.4 19.8-19.1 34.6 3.6 12.2 14.8 20.1 26.9 20.1z" fill="#F47E4B" /><path d="M295.7 497m-45.4 0a45.4 45.4 0 1 0 90.8 0 45.4 45.4 0 1 0-90.8 0Z" fill="#F47E4B" /></svg>