<?xml version="1.0" standalone="no"?><!DOCTYPE svg PUBLIC "-//W3C//DTD SVG 1.1//EN" "http://www.w3.org/Graphics/SVG/1.1/DTD/svg11.dtd"><svg style="margin-top:0px;" class="icon" width="16px" height="16.00px" viewBox="0 0 1024 1024" version="1.1" xmlns="http://www.w3.org/2000/svg"><path fill="#fea900" d="M793.7024 0 230.2976 0C187.9552 0 153.6 34.048 153.6 76.9536l0 870.0928C153.6 989.5424 188.16 1024 230.2976 1024l563.4048 0C836.0448 1024 870.4 989.952 870.4 947.0464L870.4 76.9536C870.4 34.4576 835.84 0 793.7024 0zM510.6688 960c-35.328 0-64-28.672-64-64s28.672-64 64-64c35.328 0 64 28.672 64 64S546.048 960 510.6688 960zM768 742.7072C768 756.4288 756.3264 768 741.888 768L282.112 768C267.6736 768 256 756.6848 256 742.7072L256 127.6928C256 113.9712 267.6736 102.4 282.112 102.4l459.8272 0C756.3264 102.4 768 113.7152 768 127.6928L768 742.7072z" /></svg>