<?xml version="1.0" standalone="no"?><!DOCTYPE svg PUBLIC "-//W3C//DTD SVG 1.1//EN" "http://www.w3.org/Graphics/SVG/1.1/DTD/svg11.dtd"><svg class="icon" width="15px" height="15.00px" viewBox="0 0 1024 1024" version="1.1" xmlns="http://www.w3.org/2000/svg"><path fill="#f60" d="M21.333333 0v1024"  /><path fill="#f60" d="M42.666667 0v1024"  /><path fill="#f60" d="M64 0v1024"  /><path fill="#f60" d="M85.333333 0v1024"  /><path fill="#f60" d="M106.666667 0v1024"  /><path fill="#f60" d="M128 0v1024"  /><path fill="#f60" d="M149.333333 0v1024"  /><path fill="#f60" d="M170.666667 0v1024"  /><path fill="#f60" d="M192 0v1024"  /><path fill="#f60" d="M213.333333 0v1024"  /><path fill="#f60" d="M234.666667 0v1024"  /><path fill="#f60" d="M256 0v1024"  /><path fill="#f60" d="M277.333333 0v1024"  /><path fill="#f60" d="M298.666667 0v1024"  /><path fill="#f60" d="M320 0v1024"  /><path fill="#f60" d="M341.333333 0v1024"  /><path fill="#f60" d="M362.666667 0v1024"  /><path fill="#f60" d="M384 0v1024"  /><path fill="#f60" d="M405.333333 0v1024"  /><path fill="#f60" d="M426.666667 0v1024"  /><path fill="#f60" d="M448 0v1024"  /><path fill="#f60" d="M469.333333 0v1024"  /><path fill="#f60" d="M490.666667 0v1024"  /><path fill="#f60" d="M512 0v1024"  /><path fill="#f60" d="M533.333333 0v1024"  /><path fill="#f60" d="M554.666667 0v1024"  /><path fill="#f60" d="M576 0v1024"  /><path fill="#f60" d="M597.333333 0v1024"  /><path fill="#f60" d="M618.666667 0v1024"  /><path fill="#f60" d="M640 0v1024"  /><path fill="#f60" d="M661.333333 0v1024"  /><path fill="#f60" d="M682.666667 0v1024"  /><path fill="#f60" d="M704 0v1024"  /><path fill="#f60" d="M725.333333 0v1024"  /><path fill="#f60" d="M746.666667 0v1024"  /><path fill="#f60" d="M768 0v1024"  /><path fill="#f60" d="M789.333333 0v1024"  /><path fill="#f60" d="M810.666667 0v1024"  /><path fill="#f60" d="M832 0v1024"  /><path fill="#f60" d="M853.333333 0v1024"  /><path fill="#f60" d="M874.666667 0v1024"  /><path fill="#f60" d="M896 0v1024"  /><path fill="#f60" d="M917.333333 0v1024"  /><path fill="#f60" d="M938.666667 0v1024"  /><path fill="#f60" d="M960 0v1024"  /><path fill="#f60" d="M981.333333 0v1024"  /><path fill="#f60" d="M1002.666667 0v1024M0 21.333333h1024"  /><path fill="#f60" d="M0 42.666667h1024"  /><path fill="#f60" d="M0 64h1024"  /><path fill="#f60" d="M0 85.333333h1024"  /><path fill="#f60" d="M0 106.666667h1024"  /><path fill="#f60" d="M0 128h1024"  /><path fill="#f60" d="M0 149.333333h1024"  /><path fill="#f60" d="M0 170.666667h1024"  /><path fill="#f60" d="M0 192h1024"  /><path fill="#f60" d="M0 213.333333h1024"  /><path fill="#f60" d="M0 234.666667h1024"  /><path fill="#f60" d="M0 256h1024"  /><path fill="#f60" d="M0 277.333333h1024"  /><path fill="#f60" d="M0 298.666667h1024"  /><path fill="#f60" d="M0 320h1024"  /><path fill="#f60" d="M0 341.333333h1024"  /><path fill="#f60" d="M0 362.666667h1024"  /><path fill="#f60" d="M0 384h1024"  /><path fill="#f60" d="M0 405.333333h1024"  /><path fill="#f60" d="M0 426.666667h1024"  /><path fill="#f60" d="M0 448h1024"  /><path fill="#f60" d="M0 469.333333h1024"  /><path fill="#f60" d="M0 490.666667h1024"  /><path fill="#f60" d="M0 512h1024"  /><path fill="#f60" d="M0 533.333333h1024"  /><path fill="#f60" d="M0 554.666667h1024"  /><path fill="#f60" d="M0 576h1024"  /><path fill="#f60" d="M0 597.333333h1024"  /><path fill="#f60" d="M0 618.666667h1024"  /><path fill="#f60" d="M0 640h1024"  /><path fill="#f60" d="M0 661.333333h1024"  /><path fill="#f60" d="M0 682.666667h1024"  /><path fill="#f60" d="M0 704h1024"  /><path fill="#f60" d="M0 725.333333h1024"  /><path fill="#f60" d="M0 746.666667h1024"  /><path fill="#f60" d="M0 768h1024"  /><path fill="#f60" d="M0 789.333333h1024"  /><path fill="#f60" d="M0 810.666667h1024"  /><path fill="#f60" d="M0 832h1024"  /><path fill="#f60" d="M0 853.333333h1024"  /><path fill="#f60" d="M0 874.666667h1024"  /><path fill="#f60" d="M0 896h1024"  /><path fill="#f60" d="M0 917.333333h1024"  /><path fill="#f60" d="M0 938.666667h1024"  /><path fill="#f60" d="M0 960h1024"  /><path fill="#f60" d="M0 981.333333h1024"  /><path fill="#f60" d="M0 1002.666667h1024"  /><path fill="#f60" d="M726 768q34 0 59 26t25 60-25 59-59 25-60-25T640 854t26-60 60-26zM42 86h140l40 84h632q18 0 30 13t12 31q0 10-6 20l-152 276q-24 44-74 44H346L308 624l-2 6q0 10 10 10h494v86h-512q-34 0-59-26t-25-60q0-20 10-40l58-106L128 170H42v-84z m256 682q34 0 60 26t26 60-26 59-60 25-59-25-25-59 25-60T298 768z"  /></svg>