<?xml version="1.0" standalone="no"?><!DOCTYPE svg PUBLIC "-//W3C//DTD SVG 1.1//EN" "http://www.w3.org/Graphics/SVG/1.1/DTD/svg11.dtd"><svg class="icon" width="16px" height="16.00px" viewBox="0 0 1024 1024" version="1.1" xmlns="http://www.w3.org/2000/svg"><path fill="#fea900" d="M 639.328 66.334 c 64.214 -0.012 128.198 -0.171 127.919 64.639 c -0.052 12.117 0.118 127.872 0.118 127.872 s -89.898 68.019 -89.056 124.564 c 0.313 20.936 -0.736 130.963 -0.736 130.963 h -335.272 c 0 0 1.16 -63.975 -0.798 -130.584 s -85.503 -125.073 -85.503 -125.073 s -0.172 -95.529 -0.172 -127.998 c 0 -64.383 63.448 -64.462 129.114 -64.093 c 63.595 0.359 245.768 -0.288 254.386 -0.291 Z M 126.49 705.892 c -0.194 63.951 88.959 64.301 88.959 64.301 l 1.203 191.264 h 102.332 l -0.202 -192.208 l 384.73 -1.592 l 0.064 191.741 h 99.288 v -189.369 c 0 0 92.161 -1.446 92.362 -63.957 c 0.175 -54.363 0.019 -176.824 0.019 -176.824 c 53.204 -21.106 89.716 -117.18 25.824 -167.055 c -80.874 -63.133 -192.002 -3.264 -191.35 72.488 c 0.244 28.203 0.332 142.184 0.332 142.184 l -437.897 0.464 c 0 0 0 -27.61 0 -134.811 c 0 -118.941 -158.042 -140.404 -211.448 -52.005 c -51.546 85.32 46.89 123.259 46.803 135.79 c -0.082 11.769 -0.744 87.833 -1.022 179.591 Z M 843.484 320.849 c -61.746 0 -111.801 50.053 -111.801 111.796 s 50.055 111.796 111.801 111.796 s 111.8 -50.053 111.8 -111.796 s -50.054 -111.796 -111.8 -111.796 Z M 176.962 320.85 c -61.746 0 -111.801 50.053 -111.801 111.796 s 50.055 111.795 111.801 111.795 s 111.8 -50.053 111.801 -111.795 c 0 -61.745 -50.054 -111.796 -111.8 -111.796 Z" /></svg>