<?xml version="1.0" standalone="no"?><!DOCTYPE svg PUBLIC "-//W3C//DTD SVG 1.1//EN" "http://www.w3.org/Graphics/SVG/1.1/DTD/svg11.dtd"><svg class="icon" width="16px" height="16.00px" viewBox="0 0 1024 1024" version="1.1" xmlns="http://www.w3.org/2000/svg"><path fill="#fea900" d="M826.035276 720.488405 658.165987 720.488405l-44.768623 0 0 42.75271 44.768623 45.152363 0 11.290137-290.977118 0 0-11.293207 44.762483-45.150316 0-42.75578-44.762483 0L199.316511 720.484312c-18.543332 0-33.5757-15.162328-33.5757-33.867342L165.740812 235.101529c0-18.703991 15.032368-33.867342 33.5757-33.867342l626.718765 0c18.543332 0 33.5757 15.162328 33.5757 33.867342l0 451.516464C859.611999 705.326077 844.578608 720.488405 826.035276 720.488405L826.035276 720.488405zM814.844399 246.38655 210.505341 246.38655l0 383.798153 604.340081 0L814.845423 246.38655 814.844399 246.38655zM814.844399 246.38655" /></svg>